<svg xmlns="http://www.w3.org/2000/svg" height="800" width="1200" viewBox="-41.878755 -15.086525 362.94921 90.51915"><g fill="none" fill-rule="evenodd"><path d="M122.5314 15.2885l-.1683-.0801c-.0171-.01-1.9917-.8991-3.5352.7254l-.1971.2079 3.1617 1.5498zm14.4729 17.3619s-1.3779 2.4669-1.9953 3.3786c-.6201.9189-2.5596 1.4895-4.2363.6885-.7668-.3645-7.9407-4.5486-10.6857-4.3092-13.8951 1.2114-17.6805-4.5135-18.1269-5.0337-.4482-.5202-1.2834-.2781-.6867.7452 3.0483 5.2272 12.069 7.6509 12.069 7.6509 2.3589 5.6844 2.6415 9.6669 2.6415 9.6669-2.3364-1.8207-4.8582-3.3552-7.5339-4.6296-7.1514-4.7988-18.3465-10.7415-33.7563-14.4666C75.5793 14.1176 81.747-3.553 110.5902.6257c0 0 5.787.9486 9.6453 3.6162 0 0-.927.972-2.1456 2.1888-1.2186 1.214.1296 1.9935.1296 1.9935l6.0921 4.7889c.0711 2.5335.1755 3.2436 2.0817 5.5368 1.9062 2.2887 9.3177 10.0512 10.287 11.0898 1.1232 1.2006.324 2.8107.324 2.8107zM70.5771 8.8238c-1.5255 6.2838-1.4085 11.8206-.6246 16.4754-1.4481-.288-2.9178-.5643-4.4325-.811-31.5666-5.1371-41.0877 10.4212-37.4031 23.0365C17.6814 51.4469 7.8741 55.937 0 60.346 12.3894 30.6317 39.3138 4.4786 62.0379 1.0415c7.4196-.9783 9.5067 3.8349 8.5392 7.7823z" fill="#1f2555"/><path d="M74.9502 35.9813c12.2985-.972 23.9058.2619 33.4989 4.8267-7.1505-4.7988-18.3456-10.7415-33.7563-14.4666-.3078 4.2588.0216 7.8552.2574 9.6399zm-1.7748.1548C59.3955 37.451 43.1019 41.897 28.1169 47.5247 24.4323 34.9094 33.9543 19.351 65.52 24.4883c1.5147.2466 2.9844.5229 4.4316.8109.7488 4.4505 2.1042 8.1063 3.2238 10.8369z" fill="#00a6a7"/><path d="M257.7744 31.4354l4.2741-10.4337 4.275 10.4337zm1.1016-18.9351l-13.7862 32.4h7.2153l2.9394-7.2135h13.6071l2.9394 7.2135h7.4007l-13.7871-32.4zm-89.2863 11.4336c0 2.7747-2.0808 4.904-5.6448 4.904h-5.6475v-9.9035h5.5071c3.5658 0 5.7852 1.7127 5.7852 4.9068zm-5.1822-11.4336h-13.2381v32.4h7.128v-9.72h5.4135c7.2675 0 13.1022-3.8898 13.1022-11.3877v-.0927c0-6.6186-4.6737-11.1996-12.4056-11.1996zm51.1875 3.618c-3.3975 3.3192-5.1201 7.5204-5.1201 12.4884 0 4.9725 1.6902 9.1422 5.0292 12.401 3.3327 3.2554 7.5231 4.9033 12.456 4.9033 5.8401 0 10.4049-1.7676 13.5756-5.2551l.1638-.1836V25.6007h-14.0913v6.0192h7.3503v6.074c-1.9035 1.1332-4.2786 1.7083-7.065 1.7083-2.8872 0-5.3775-.9891-7.4034-2.944-2.0205-1.9457-3.0456-4.5836-3.0456-7.8245 0-3.2436 1.0557-5.8923 3.1365-7.8714 2.088-1.9872 4.7106-2.9952 7.7958-2.9952 1.6227 0 3.06.1998 4.2705.594 1.1358.369 2.286 1.0395 3.4254 1.98l3.942-4.9761c-2.0799-1.8324-5.823-4.2444-12.0546-4.2444-4.8069 0-8.9676 1.682-12.3651 4.9977zm-26.4852 15.8256h13.9554v-6.3432h-13.9554V18.838h17.3583v-6.3378h-24.4413v32.4h24.6717v-6.3405h-17.5887z" fill="#1f2555"/></g></svg>