<svg xmlns="http://www.w3.org/2000/svg" width="430" height="430" style="width:100%;height:100%;transform:translate3d(0,0,0);content-visibility:visible" viewBox="0 0 430 430"><defs><clipPath id="a"><path d="M0 0h430v430H0z"/></clipPath><clipPath id="b"><path d="M0 0h430v430H0z"/></clipPath></defs><g clip-path="url(#a)"><g clip-path="url(#b)" style="display:block"><path fill="#EBE6EF" d="m212.285 83.321-10.65 22.697a3 3 0 0 1-4.599 1.061l-26.931-21.706c-2.217-1.787-5.443.232-4.806 3.007l9.77 42.602a3.001 3.001 0 0 0 2.924 2.33h74.02a3.001 3.001 0 0 0 2.924-2.33l9.771-42.602c.637-2.775-2.59-4.794-4.807-3.007L232.97 107.08a3 3 0 0 1-4.599-1.061l-10.655-22.698c-1.08-2.3-4.351-2.301-5.431 0zm70.452 290.17H147.263c-9.925 0-17.97-8.045-17.97-17.97v-21.829c0-9.925 8.045-17.97 17.97-17.97h135.474c9.925 0 17.97 8.045 17.97 17.97v21.829c0 9.925-8.045 17.97-17.97 17.97z" class="primary"/><path fill="#EBE6EF" d="M282.482 320.325c-1.339-58.684-41.988-91.437-41.988-187.326h-50.988c0 95.889-40.386 129.048-41.725 187.733" class="primary"/><path fill="#FFC738" d="M201.737 64.272c0 7.325 5.938 13.263 13.263 13.263s13.263-5.938 13.263-13.263S222.325 51.009 215 51.009s-13.263 5.938-13.263 13.263zm51.644 2.404c0 7.325 5.937 13.263 13.262 13.263s13.263-5.938 13.263-13.263-5.938-13.263-13.263-13.263-13.262 5.938-13.262 13.263zm-103.281 0c0 7.325 5.938 13.263 13.263 13.263s13.262-5.938 13.262-13.263-5.937-13.263-13.262-13.263S150.1 59.351 150.1 66.676z" class="secondary"/><path fill="none" stroke="#3A3347" stroke-linecap="round" stroke-linejoin="round" stroke-width="7" d="M270.715 272.449H159.66" class="tertiary"/><path fill="#EBE6EF" d="M67.737 161.241H-67.737c-9.925 0-17.97-8.045-17.97-17.97v-21.829c0-9.925 8.045-17.97 17.97-17.97H67.737c9.925 0 17.97 8.045 17.97 17.97v21.829c0 9.925-8.045 17.97-17.97 17.97z" class="primary" opacity=".5" style="mix-blend-mode:multiply" transform="translate(215 212.25)"/></g></g></svg>